<?xml version="1.0" encoding="UTF-8" standalone="no"?>
<!-- Created with Inkscape (http://www.inkscape.org/) -->

<svg
   width="512"
   height="512"
   viewBox="0 0 512 512"
   version="1.1"
   id="svg1"
   xmlns:xlink="http://www.w3.org/1999/xlink"
   xmlns="http://www.w3.org/2000/svg"
   xmlns:svg="http://www.w3.org/2000/svg">
  <defs
     id="defs1">
    <marker
       style="overflow:visible"
       id="marker51"
       refX="0"
       refY="0"
       orient="auto"
       markerWidth="1"
       markerHeight="1"
       viewBox="0 0 1 1"
       preserveAspectRatio="xMidYMid">
      <path
         transform="scale(0.5)"
         style="fill:context-stroke;fill-rule:evenodd;stroke:none"
         d="M 5,0 C 5,2.76 2.76,5 0,5 -2.76,5 -5,2.76 -5,0 c 0,-2.76 2.3,-5 5,-5 2.76,0 5,2.24 5,5 z"
         id="path51" />
    </marker>
    <marker
       style="overflow:visible"
       id="Dot"
       refX="0"
       refY="0"
       orient="auto"
       markerWidth="1"
       markerHeight="1"
       viewBox="0 0 1 1"
       preserveAspectRatio="xMidYMid">
      <path
         transform="scale(0.5)"
         style="fill:context-stroke;fill-rule:evenodd;stroke:none"
         d="M 5,0 C 5,2.76 2.76,5 0,5 -2.76,5 -5,2.76 -5,0 c 0,-2.76 2.3,-5 5,-5 2.76,0 5,2.24 5,5 z"
         id="path17" />
    </marker>
    <linearGradient
       id="linearGradient48">
      <stop
         style="stop-color:#6aaaff;stop-opacity:1;"
         offset="0"
         id="stop48" />
      <stop
         style="stop-color:#000da6;stop-opacity:1;"
         offset="1"
         id="stop49" />
    </linearGradient>
    <linearGradient
       xlink:href="#linearGradient48"
       id="linearGradient49"
       x1="512"
       y1="0"
       x2="0"
       y2="512"
       gradientUnits="userSpaceOnUse" />
  </defs>
  <g
     id="layer1">
    <circle
       style="fill:url(#linearGradient49);fill-opacity:1;stroke-width:1;stroke-dasharray:none;marker-mid:url(#Dot);marker-end:url(#marker51)"
       id="path26"
       cy="256"
       cx="256"
       r="256" />
    <path
       style="display:none;opacity:0.710468;fill:#a80075;fill-opacity:0;stroke:#000000;stroke-width:1;stroke-linejoin:miter;stroke-miterlimit:4;stroke-dasharray:none;stroke-dashoffset:0;stroke-opacity:1;paint-order:markers stroke fill"
       id="path72"
       d="m 456,256 -15.22409,76.53669 -43.35455,64.88467 -64.88467,43.35455 L 256,456 179.46331,440.77591 114.57864,397.42136 71.224093,332.53669 56,256 71.224093,179.46331 114.57864,114.57864 179.46331,71.224093 256,56 l 76.53669,15.224093 64.88467,43.354547 43.35455,64.88467 z" />
    <path
       id="path75"
       style="display:none;opacity:0.710468;fill:#a80075;fill-opacity:0;stroke:#000000;stroke-width:10;stroke-linecap:butt;stroke-linejoin:round;stroke-miterlimit:4;stroke-dasharray:none;stroke-dashoffset:0;stroke-opacity:1;paint-order:markers stroke fill"
       d="m 256,256 v 200 m 0,0 L 456,256 397.42136,114.57864 256,256 114.57864,114.57864 56,256 256,456 114.57864,114.57864 h 282.84272 z" />
    <path
       id="path83"
       style="display:inline;opacity:0.710468;fill:#a80075;fill-opacity:0;stroke:#000000;stroke-width:25;stroke-linecap:butt;stroke-linejoin:round;stroke-miterlimit:4;stroke-dasharray:none;stroke-dashoffset:0;stroke-opacity:1;paint-order:markers stroke fill"
       d="M 332.53669,179.46331 256,456 178.78846,179.46331 M 256,456 456,256 397.42136,114.57864 332.53669,179.46331 256,114.73057 178.78846,179.46331 114.57864,114.57864 56,256 Z M 397.42136,114.57864 H 114.57864" />
  </g>
</svg>
